<mxfile host="app.diagrams.net" modified="2021-03-17T15:40:30.877Z" agent="5.0 (Windows NT 10.0; Win64; x64) AppleWebKit/537.36 (KHTML, like Gecko) Chrome/89.0.4389.82 Safari/537.36" etag="Nz1I1FL2oP8zXGiPAzym" version="14.4.8" type="github">
  <diagram id="EHkhUbj7QHpAb9fNgOLU" name="Page-1">
    <mxGraphModel dx="1360" dy="834" grid="1" gridSize="10" guides="1" tooltips="1" connect="1" arrows="1" fold="1" page="1" pageScale="1" pageWidth="1169" pageHeight="1654" math="0" shadow="0">
      <root>
        <mxCell id="0" />
        <mxCell id="1" parent="0" />
        <mxCell id="omRZnv0pHxZc7PW22v9S-21" style="edgeStyle=orthogonalEdgeStyle;rounded=0;orthogonalLoop=1;jettySize=auto;html=1;exitX=0.75;exitY=0;exitDx=0;exitDy=0;" parent="1" source="omRZnv0pHxZc7PW22v9S-2" target="omRZnv0pHxZc7PW22v9S-10" edge="1">
          <mxGeometry relative="1" as="geometry" />
        </mxCell>
        <mxCell id="omRZnv0pHxZc7PW22v9S-27" style="edgeStyle=orthogonalEdgeStyle;rounded=0;orthogonalLoop=1;jettySize=auto;html=1;exitX=0.75;exitY=1;exitDx=0;exitDy=0;" parent="1" source="omRZnv0pHxZc7PW22v9S-2" target="omRZnv0pHxZc7PW22v9S-25" edge="1">
          <mxGeometry relative="1" as="geometry" />
        </mxCell>
        <mxCell id="omRZnv0pHxZc7PW22v9S-31" style="edgeStyle=orthogonalEdgeStyle;rounded=0;orthogonalLoop=1;jettySize=auto;html=1;entryX=0;entryY=0.5;entryDx=0;entryDy=0;" parent="1" source="omRZnv0pHxZc7PW22v9S-2" target="omRZnv0pHxZc7PW22v9S-30" edge="1">
          <mxGeometry relative="1" as="geometry" />
        </mxCell>
        <mxCell id="omRZnv0pHxZc7PW22v9S-52" style="edgeStyle=orthogonalEdgeStyle;rounded=0;orthogonalLoop=1;jettySize=auto;html=1;entryX=0.5;entryY=0;entryDx=0;entryDy=0;" parent="1" source="omRZnv0pHxZc7PW22v9S-2" target="omRZnv0pHxZc7PW22v9S-51" edge="1">
          <mxGeometry relative="1" as="geometry" />
        </mxCell>
        <mxCell id="omRZnv0pHxZc7PW22v9S-2" value="Schüler" style="whiteSpace=wrap;html=1;align=center;" parent="1" vertex="1">
          <mxGeometry x="230" y="120" width="130" height="50" as="geometry" />
        </mxCell>
        <mxCell id="omRZnv0pHxZc7PW22v9S-4" value="ID" style="ellipse;whiteSpace=wrap;html=1;align=center;fontStyle=4;" parent="1" vertex="1">
          <mxGeometry x="70" y="20" width="100" height="40" as="geometry" />
        </mxCell>
        <mxCell id="omRZnv0pHxZc7PW22v9S-9" value="" style="endArrow=none;html=1;rounded=0;entryX=0;entryY=0.25;entryDx=0;entryDy=0;exitX=0.66;exitY=0.975;exitDx=0;exitDy=0;exitPerimeter=0;" parent="1" source="omRZnv0pHxZc7PW22v9S-4" target="omRZnv0pHxZc7PW22v9S-2" edge="1">
          <mxGeometry relative="1" as="geometry">
            <mxPoint x="70" y="240" as="sourcePoint" />
            <mxPoint x="230" y="240" as="targetPoint" />
          </mxGeometry>
        </mxCell>
        <mxCell id="omRZnv0pHxZc7PW22v9S-10" value="T-Shirt Größe" style="ellipse;whiteSpace=wrap;html=1;align=center;" parent="1" vertex="1">
          <mxGeometry x="300" y="20" width="100" height="40" as="geometry" />
        </mxCell>
        <mxCell id="omRZnv0pHxZc7PW22v9S-49" style="edgeStyle=orthogonalEdgeStyle;rounded=0;orthogonalLoop=1;jettySize=auto;html=1;entryX=0.5;entryY=1;entryDx=0;entryDy=0;" parent="1" source="omRZnv0pHxZc7PW22v9S-11" target="omRZnv0pHxZc7PW22v9S-48" edge="1">
          <mxGeometry relative="1" as="geometry" />
        </mxCell>
        <mxCell id="omRZnv0pHxZc7PW22v9S-11" value="&lt;div&gt;Druckerei&lt;/div&gt;" style="whiteSpace=wrap;html=1;align=center;" parent="1" vertex="1">
          <mxGeometry x="1270" y="850" width="100" height="40" as="geometry" />
        </mxCell>
        <mxCell id="omRZnv0pHxZc7PW22v9S-54" style="edgeStyle=orthogonalEdgeStyle;rounded=0;orthogonalLoop=1;jettySize=auto;html=1;entryX=0.5;entryY=1;entryDx=0;entryDy=0;" parent="1" source="omRZnv0pHxZc7PW22v9S-12" target="omRZnv0pHxZc7PW22v9S-51" edge="1">
          <mxGeometry relative="1" as="geometry" />
        </mxCell>
        <mxCell id="omRZnv0pHxZc7PW22v9S-12" value="Kurs" style="whiteSpace=wrap;html=1;align=center;" parent="1" vertex="1">
          <mxGeometry x="245" y="430" width="100" height="40" as="geometry" />
        </mxCell>
        <mxCell id="omRZnv0pHxZc7PW22v9S-34" style="edgeStyle=orthogonalEdgeStyle;rounded=0;orthogonalLoop=1;jettySize=auto;html=1;entryX=0;entryY=0.5;entryDx=0;entryDy=0;" parent="1" source="omRZnv0pHxZc7PW22v9S-15" target="omRZnv0pHxZc7PW22v9S-33" edge="1">
          <mxGeometry relative="1" as="geometry" />
        </mxCell>
        <mxCell id="omRZnv0pHxZc7PW22v9S-46" style="edgeStyle=orthogonalEdgeStyle;rounded=0;orthogonalLoop=1;jettySize=auto;html=1;entryX=0.5;entryY=0;entryDx=0;entryDy=0;" parent="1" source="omRZnv0pHxZc7PW22v9S-15" target="omRZnv0pHxZc7PW22v9S-45" edge="1">
          <mxGeometry relative="1" as="geometry" />
        </mxCell>
        <mxCell id="omRZnv0pHxZc7PW22v9S-15" value="Kurskomitee" style="whiteSpace=wrap;html=1;align=center;" parent="1" vertex="1">
          <mxGeometry x="650" y="30" width="100" height="40" as="geometry" />
        </mxCell>
        <mxCell id="omRZnv0pHxZc7PW22v9S-16" value="Produkt" style="whiteSpace=wrap;html=1;align=center;" parent="1" vertex="1">
          <mxGeometry x="1270" y="560" width="100" height="40" as="geometry" />
        </mxCell>
        <mxCell id="omRZnv0pHxZc7PW22v9S-17" value="Abstimmung" style="whiteSpace=wrap;html=1;align=center;" parent="1" vertex="1">
          <mxGeometry x="810" y="260" width="100" height="40" as="geometry" />
        </mxCell>
        <mxCell id="omRZnv0pHxZc7PW22v9S-43" style="edgeStyle=orthogonalEdgeStyle;rounded=0;orthogonalLoop=1;jettySize=auto;html=1;entryX=0.5;entryY=1;entryDx=0;entryDy=0;" parent="1" source="omRZnv0pHxZc7PW22v9S-18" target="omRZnv0pHxZc7PW22v9S-40" edge="1">
          <mxGeometry relative="1" as="geometry" />
        </mxCell>
        <mxCell id="omRZnv0pHxZc7PW22v9S-55" style="edgeStyle=orthogonalEdgeStyle;rounded=0;orthogonalLoop=1;jettySize=auto;html=1;entryX=1;entryY=0.5;entryDx=0;entryDy=0;" parent="1" source="omRZnv0pHxZc7PW22v9S-18" target="omRZnv0pHxZc7PW22v9S-51" edge="1">
          <mxGeometry relative="1" as="geometry">
            <mxPoint x="360" y="340" as="targetPoint" />
          </mxGeometry>
        </mxCell>
        <mxCell id="omRZnv0pHxZc7PW22v9S-18" value="Lehrer" style="whiteSpace=wrap;html=1;align=center;" parent="1" vertex="1">
          <mxGeometry x="810" y="720" width="100" height="40" as="geometry" />
        </mxCell>
        <mxCell id="omRZnv0pHxZc7PW22v9S-58" style="edgeStyle=orthogonalEdgeStyle;rounded=0;orthogonalLoop=1;jettySize=auto;html=1;entryX=0.5;entryY=0;entryDx=0;entryDy=0;" parent="1" source="omRZnv0pHxZc7PW22v9S-23" target="omRZnv0pHxZc7PW22v9S-56" edge="1">
          <mxGeometry relative="1" as="geometry" />
        </mxCell>
        <mxCell id="omRZnv0pHxZc7PW22v9S-23" value="Shirt" style="whiteSpace=wrap;html=1;align=center;" parent="1" vertex="1">
          <mxGeometry x="1100" y="70" width="100" height="40" as="geometry" />
        </mxCell>
        <mxCell id="omRZnv0pHxZc7PW22v9S-57" style="edgeStyle=orthogonalEdgeStyle;rounded=0;orthogonalLoop=1;jettySize=auto;html=1;" parent="1" source="omRZnv0pHxZc7PW22v9S-24" target="omRZnv0pHxZc7PW22v9S-56" edge="1">
          <mxGeometry relative="1" as="geometry" />
        </mxCell>
        <mxCell id="omRZnv0pHxZc7PW22v9S-24" value="Hoodie" style="whiteSpace=wrap;html=1;align=center;" parent="1" vertex="1">
          <mxGeometry x="1020" y="180" width="100" height="40" as="geometry" />
        </mxCell>
        <mxCell id="omRZnv0pHxZc7PW22v9S-38" style="edgeStyle=orthogonalEdgeStyle;rounded=0;orthogonalLoop=1;jettySize=auto;html=1;entryX=0;entryY=0.5;entryDx=0;entryDy=0;" parent="1" source="omRZnv0pHxZc7PW22v9S-25" target="omRZnv0pHxZc7PW22v9S-17" edge="1">
          <mxGeometry relative="1" as="geometry" />
        </mxCell>
        <mxCell id="omRZnv0pHxZc7PW22v9S-25" value="nimmt Teil" style="shape=rhombus;perimeter=rhombusPerimeter;whiteSpace=wrap;html=1;align=center;" parent="1" vertex="1">
          <mxGeometry x="330" y="200" width="120" height="60" as="geometry" />
        </mxCell>
        <mxCell id="omRZnv0pHxZc7PW22v9S-32" style="edgeStyle=orthogonalEdgeStyle;rounded=0;orthogonalLoop=1;jettySize=auto;html=1;entryX=0;entryY=0.5;entryDx=0;entryDy=0;" parent="1" source="omRZnv0pHxZc7PW22v9S-30" target="omRZnv0pHxZc7PW22v9S-15" edge="1">
          <mxGeometry relative="1" as="geometry" />
        </mxCell>
        <mxCell id="omRZnv0pHxZc7PW22v9S-30" value="ist in" style="shape=rhombus;perimeter=rhombusPerimeter;whiteSpace=wrap;html=1;align=center;" parent="1" vertex="1">
          <mxGeometry x="430" y="120" width="120" height="60" as="geometry" />
        </mxCell>
        <mxCell id="omRZnv0pHxZc7PW22v9S-35" style="edgeStyle=orthogonalEdgeStyle;rounded=0;orthogonalLoop=1;jettySize=auto;html=1;entryX=0;entryY=0.5;entryDx=0;entryDy=0;" parent="1" source="omRZnv0pHxZc7PW22v9S-33" target="omRZnv0pHxZc7PW22v9S-23" edge="1">
          <mxGeometry relative="1" as="geometry" />
        </mxCell>
        <mxCell id="omRZnv0pHxZc7PW22v9S-36" style="edgeStyle=orthogonalEdgeStyle;rounded=0;orthogonalLoop=1;jettySize=auto;html=1;entryX=0;entryY=0.5;entryDx=0;entryDy=0;" parent="1" source="omRZnv0pHxZc7PW22v9S-33" target="omRZnv0pHxZc7PW22v9S-24" edge="1">
          <mxGeometry relative="1" as="geometry" />
        </mxCell>
        <mxCell id="omRZnv0pHxZc7PW22v9S-37" style="edgeStyle=orthogonalEdgeStyle;rounded=0;orthogonalLoop=1;jettySize=auto;html=1;entryX=0.5;entryY=0;entryDx=0;entryDy=0;" parent="1" source="omRZnv0pHxZc7PW22v9S-33" target="omRZnv0pHxZc7PW22v9S-17" edge="1">
          <mxGeometry relative="1" as="geometry" />
        </mxCell>
        <mxCell id="omRZnv0pHxZc7PW22v9S-33" value="plant" style="shape=rhombus;perimeter=rhombusPerimeter;whiteSpace=wrap;html=1;align=center;" parent="1" vertex="1">
          <mxGeometry x="800" y="130" width="120" height="60" as="geometry" />
        </mxCell>
        <mxCell id="omRZnv0pHxZc7PW22v9S-44" style="edgeStyle=orthogonalEdgeStyle;rounded=0;orthogonalLoop=1;jettySize=auto;html=1;entryX=0.5;entryY=1;entryDx=0;entryDy=0;" parent="1" source="omRZnv0pHxZc7PW22v9S-40" target="omRZnv0pHxZc7PW22v9S-17" edge="1">
          <mxGeometry relative="1" as="geometry" />
        </mxCell>
        <mxCell id="omRZnv0pHxZc7PW22v9S-40" value="wird kontrolliert" style="shape=rhombus;perimeter=rhombusPerimeter;whiteSpace=wrap;html=1;align=center;" parent="1" vertex="1">
          <mxGeometry x="800" y="350" width="120" height="60" as="geometry" />
        </mxCell>
        <mxCell id="omRZnv0pHxZc7PW22v9S-47" style="edgeStyle=orthogonalEdgeStyle;rounded=0;orthogonalLoop=1;jettySize=auto;html=1;entryX=0.5;entryY=0;entryDx=0;entryDy=0;" parent="1" source="omRZnv0pHxZc7PW22v9S-45" target="omRZnv0pHxZc7PW22v9S-16" edge="1">
          <mxGeometry relative="1" as="geometry" />
        </mxCell>
        <mxCell id="omRZnv0pHxZc7PW22v9S-45" value="bestellt" style="shape=rhombus;perimeter=rhombusPerimeter;whiteSpace=wrap;html=1;align=center;" parent="1" vertex="1">
          <mxGeometry x="1260" y="260" width="120" height="60" as="geometry" />
        </mxCell>
        <mxCell id="omRZnv0pHxZc7PW22v9S-50" style="edgeStyle=orthogonalEdgeStyle;rounded=0;orthogonalLoop=1;jettySize=auto;html=1;entryX=0.5;entryY=1;entryDx=0;entryDy=0;" parent="1" source="omRZnv0pHxZc7PW22v9S-48" target="omRZnv0pHxZc7PW22v9S-16" edge="1">
          <mxGeometry relative="1" as="geometry" />
        </mxCell>
        <mxCell id="omRZnv0pHxZc7PW22v9S-48" value="produziert" style="shape=rhombus;perimeter=rhombusPerimeter;whiteSpace=wrap;html=1;align=center;" parent="1" vertex="1">
          <mxGeometry x="1260" y="690" width="120" height="60" as="geometry" />
        </mxCell>
        <mxCell id="omRZnv0pHxZc7PW22v9S-51" value="ist Mitglied in " style="shape=rhombus;perimeter=rhombusPerimeter;whiteSpace=wrap;html=1;align=center;" parent="1" vertex="1">
          <mxGeometry x="235" y="300" width="120" height="60" as="geometry" />
        </mxCell>
        <mxCell id="omRZnv0pHxZc7PW22v9S-59" style="edgeStyle=orthogonalEdgeStyle;rounded=0;orthogonalLoop=1;jettySize=auto;html=1;entryX=0;entryY=0.5;entryDx=0;entryDy=0;" parent="1" source="omRZnv0pHxZc7PW22v9S-56" target="omRZnv0pHxZc7PW22v9S-16" edge="1">
          <mxGeometry relative="1" as="geometry" />
        </mxCell>
        <mxCell id="omRZnv0pHxZc7PW22v9S-56" value="is A" style="shape=rhombus;perimeter=rhombusPerimeter;whiteSpace=wrap;html=1;align=center;" parent="1" vertex="1">
          <mxGeometry x="1090" y="370" width="120" height="60" as="geometry" />
        </mxCell>
      </root>
    </mxGraphModel>
  </diagram>
</mxfile>
